# xmcd CD database file
#
# Track frame offsets:
#	150
#	6555
#	15709
#	37885
#	54500
#	72002
#	86750
#	98623
#	109236
#	117834
#
# Disc length: 1726 seconds
#
# Revision: 0
# Processed by: cddbd v1.5.2PL0 Copyright (c) Steve Scherf et al.
# Submitted via: CDex 1.51
#
DISCID=7806bc0a
DTITLE=Haakon Vatle - Den Norske Sjømann
DYEAR=2007
DGENRE=Sjømansvise/Shanty
TTITLE0=Den vegelsinnede pike
TTITLE1=Å vokt dig vel
TTITLE2=En sjømanns død
TTITLE3=Arendalsvisa
TTITLE4=Det brusande hav
TTITLE5=Sjømands sang
TTITLE6=Styrmannen og hans pike
TTITLE7=Den glade sjømann
TTITLE8=En sjømannsvise fra Kinakysten
TTITLE9=Eg fekk eit blikk
EXTD=YEAR: 2007
EXTT0=
EXTT1=
EXTT2=
EXTT3=
EXTT4=
EXTT5=
EXTT6=
EXTT7=
EXTT8=
EXTT9=
PLAYORDER=
